<?xml version="1.0" encoding="UTF-8"?>
<svg width="24px" height="24px" viewBox="0 0 24 24" version="1.1" xmlns="http://www.w3.org/2000/svg" xmlns:xlink="http://www.w3.org/1999/xlink">
    <title>Path</title>
    
    <g transform="translate(0.000000,1500.000000) scale(0.100000,-0.100000)"
fill="#000000" stroke="none">
<path d="M1375 14446 c-22 -7 -96 -41 -165 -75 -116 -58 -132 -70 -219 -160
-100 -102 -184 -209 -219 -278 -12 -23 -26 -45 -32 -48 -13 -8 -82 -145 -110
-217 -30 -78 -48 -162 -54 -258 -4 -47 -11 -866 -16 -1820 -10 -1689 -15
-2634 -45 -7486 -9 -1574 -17 -2349 -25 -2368 -5 -15 -10 -55 -10 -90 0 -54 6
-73 42 -144 24 -44 84 -161 135 -260 l91 -178 184 -186 c160 -162 192 -190
257 -223 40 -20 102 -43 138 -50 35 -7 91 -23 126 -34 34 -11 100 -25 147 -31
57 -7 2013 -19 5900 -35 l5816 -25 144 34 c186 43 274 72 308 101 15 12 54 37
87 54 174 92 309 201 352 286 23 45 73 114 121 170 62 70 148 245 172 350 5
23 15 2105 25 4970 8 2712 19 5355 23 5875 8 903 8 948 -10 1015 -10 39 -31
118 -46 177 -15 59 -37 120 -49 136 -12 16 -41 69 -66 118 -42 83 -54 98 -175
208 -72 65 -148 129 -169 142 -99 60 -299 155 -346 165 -28 6 -68 21 -87 34
-19 13 -48 29 -65 35 -31 12 -103 13 -8141 65 -2544 16 -3810 28 -3828 35 -37
14 -142 12 -191 -4z m5740 -521 c2987 -19 5590 -36 5785 -38 l355 -2 155 -39
c149 -37 233 -71 363 -150 60 -37 156 -136 184 -191 14 -27 31 -57 39 -65 7
-9 22 -57 34 -109 11 -51 25 -102 31 -113 9 -17 -6 -6228 -26 -10358 -6 -1202
-7 -1247 -26 -1298 -30 -83 -48 -114 -91 -159 -39 -40 -62 -74 -107 -154 -11
-20 -35 -46 -53 -57 -18 -12 -52 -35 -76 -52 -95 -67 -233 -128 -354 -155
l-117 -26 -5738 26 c-6165 28 -5791 23 -5923 75 -28 11 -68 20 -89 20 -34 0
-46 8 -129 92 -168 171 -185 194 -271 366 l-83 163 11 1732 c22 3478 31 4882
41 6847 6 1103 15 2257 19 2565 l8 560 33 83 c18 46 42 95 55 110 12 15 32 46
44 69 55 109 157 225 231 264 50 25 65 28 160 29 58 0 2549 -16 5535 -35z"/>
<path d="M7228 12404 c-2 -1 -46 -6 -98 -9 -52 -3 -108 -8 -125 -10 -16 -2
-66 -6 -110 -10 -44 -3 -96 -11 -115 -16 -19 -5 -52 -9 -72 -9 -20 0 -49 -5
-64 -10 -14 -6 -43 -13 -63 -15 -86 -11 -127 -18 -136 -23 -14 -9 -33 -12 -86
-16 -25 -2 -57 -10 -70 -17 -13 -7 -34 -14 -46 -16 -13 -2 -33 -5 -45 -6 -30
-5 -134 -34 -178 -51 -67 -25 -103 -35 -111 -31 -4 3 -38 -9 -76 -26 -37 -17
-81 -33 -98 -35 -33 -4 -87 -25 -156 -60 -26 -13 -55 -24 -65 -24 -11 0 -39
-11 -63 -25 -23 -14 -48 -25 -54 -25 -5 0 -44 -20 -86 -44 -42 -23 -92 -46
-111 -49 -40 -6 -297 -145 -305 -165 -6 -16 1874 -3292 1894 -3300 8 -3 50 13
92 36 43 23 84 42 93 42 15 0 65 19 119 46 16 8 41 14 55 14 15 0 43 5 62 10
19 6 55 13 80 15 59 6 137 14 147 16 4 1 10 0 13 -1 3 -1 39 -3 80 -5 41 -1
93 -6 115 -11 22 -4 45 -7 51 -6 7 1 38 -5 70 -14 33 -9 70 -18 84 -21 14 -3
43 -13 65 -23 22 -9 58 -23 80 -31 22 -7 51 -20 65 -29 53 -33 79 -42 104 -36
14 3 26 10 26 15 0 5 6 16 13 23 7 7 23 35 36 61 13 26 28 53 35 60 11 12 28
42 88 155 18 34 36 62 40 62 5 0 8 7 8 16 0 9 11 29 25 46 14 16 25 36 25 44
0 8 3 14 8 14 4 0 14 15 22 33 7 17 22 41 32 51 9 10 15 23 12 27 -2 4 4 18
15 31 11 13 19 25 18 28 -1 3 8 19 21 37 12 17 22 34 22 37 0 3 7 14 15 23 8
10 16 23 17 28 2 10 60 110 75 131 10 12 28 44 58 99 12 22 31 56 43 75 12 19
32 53 44 75 12 22 28 49 35 60 6 11 19 36 28 55 9 19 19 37 24 40 4 3 21 30
37 60 16 30 31 57 34 60 8 8 74 121 90 155 8 17 17 32 21 35 3 3 17 25 30 50
52 92 72 126 92 160 35 56 56 93 69 120 7 14 15 27 19 30 3 3 21 33 38 67 18
34 39 67 47 74 8 6 14 20 14 30 0 9 6 24 13 31 19 19 72 112 69 121 -1 4 2 7
7 7 5 0 15 15 22 33 7 17 20 40 29 50 8 10 15 21 15 25 1 4 18 33 38 64 20 31
37 61 37 67 0 5 3 11 8 13 4 2 17 24 30 50 13 27 29 54 35 61 7 7 21 30 32 52
11 22 37 67 58 100 20 33 40 67 44 75 3 8 14 27 24 41 10 14 16 28 14 31 -3 3
4 13 15 23 11 10 20 26 20 35 0 9 9 25 20 35 11 10 18 20 15 23 -3 3 2 14 12
24 9 10 13 18 10 18 -4 0 1 9 11 20 9 11 26 37 38 58 26 46 16 74 -35 97 -20
8 -49 24 -66 35 -54 35 -65 41 -65 35 0 -4 -12 3 -26 14 -15 12 -33 21 -40 21
-7 0 -30 12 -51 26 -21 14 -50 28 -65 31 -16 3 -28 9 -28 14 0 4 -18 13 -40
19 -22 6 -40 15 -40 19 0 5 -12 12 -26 15 -28 7 -102 39 -146 62 -14 8 -32 14
-40 14 -8 0 -33 9 -56 20 -22 11 -48 20 -56 20 -8 0 -18 5 -21 10 -3 6 -15 10
-26 10 -11 0 -31 7 -44 16 -14 9 -25 13 -25 9 0 -4 -6 -3 -12 2 -7 5 -33 15
-58 23 -25 7 -69 21 -98 31 -29 11 -70 23 -90 28 -20 5 -64 17 -96 25 -33 9
-67 18 -75 20 -9 1 -34 8 -56 14 -22 6 -53 13 -70 16 -16 2 -59 11 -95 20 -60
14 -207 39 -305 52 -22 2 -53 7 -70 11 -16 3 -52 8 -80 10 -125 9 -141 11
-155 16 -8 3 -28 6 -45 6 -16 0 -164 2 -327 4 -163 3 -298 3 -300 1z"/>
<path d="M11405 12351 c-80 -39 -207 -158 -250 -236 -157 -282 -208 -434 -241
-715 -21 -188 -16 -297 21 -435 20 -78 65 -317 65 -348 0 -39 63 -224 104
-305 69 -137 230 -257 398 -297 92 -22 294 -20 383 4 151 40 204 59 250 87 83
50 180 159 239 269 15 28 36 64 46 81 11 17 31 82 46 145 23 103 25 130 22
279 l-3 165 -47 98 c-63 130 -174 256 -263 298 -33 16 -66 29 -73 29 -7 0 -31
9 -53 20 -22 12 -90 32 -152 46 -96 22 -129 25 -232 21 -87 -3 -137 -10 -180
-25 -33 -11 -61 -19 -63 -17 -14 14 130 328 171 372 38 42 139 16 335 -85 55
-29 65 -39 86 -85 44 -97 120 -147 223 -147 73 0 127 24 174 77 49 54 62 100
57 188 -9 137 -108 284 -235 349 -29 14 -54 30 -58 36 -10 16 -161 90 -230
113 -119 39 -169 46 -325 47 -151 0 -157 -1 -215 -29z m357 -1286 c148 -36
209 -70 245 -139 11 -22 13 -47 8 -111 -4 -46 -12 -92 -19 -103 -6 -10 -27
-50 -47 -88 -20 -38 -46 -77 -56 -87 -27 -23 -151 -57 -210 -57 -51 0 -119 26
-142 54 -20 24 -54 128 -76 230 -15 72 -16 91 -5 94 49 17 129 126 130 178 0
15 10 23 38 31 53 15 63 15 134 -2z"/>
<path d="M11345 9862 c-85 -41 -135 -121 -135 -217 0 -67 20 -118 63 -163 61
-64 95 -73 362 -93 184 -14 545 -3 594 17 87 36 140 120 141 222 0 73 -19 124
-63 171 -56 59 -95 71 -241 71 -71 0 -146 -5 -168 -12 -30 -9 -50 -9 -86 0
-26 6 -132 14 -237 17 -174 6 -193 5 -230 -13z"/>
<path d="M7335 8024 c-93 -19 -101 -21 -142 -42 -21 -11 -63 -32 -93 -47 -30
-15 -75 -42 -99 -59 -48 -33 -181 -165 -181 -179 0 -5 -12 -24 -26 -43 -15
-19 -23 -34 -19 -34 5 0 1 -8 -7 -17 -35 -39 -90 -256 -89 -348 2 -160 62
-350 148 -469 30 -42 173 -185 185 -186 4 0 26 -13 50 -28 24 -16 63 -36 88
-46 25 -10 54 -22 65 -26 71 -29 97 -33 260 -44 33 -2 91 6 175 23 55 11 226
89 252 114 7 7 31 23 53 37 22 13 51 35 65 50 75 80 123 143 140 182 6 13 14
30 19 38 62 106 96 359 65 484 -9 33 -16 69 -15 80 0 24 -80 190 -116 240 -43
59 -161 173 -204 198 -22 12 -39 25 -39 30 0 4 -6 8 -14 8 -7 0 -34 11 -59 24
-25 14 -48 22 -51 19 -3 -3 -11 -2 -18 4 -12 8 -40 18 -118 39 -43 12 -213 11
-275 -2z"/>
<path d="M2333 7277 c-17 -7 -23 -19 -24 -46 -1 -20 0 -40 1 -46 1 -5 3 -75 5
-155 3 -139 10 -237 21 -290 5 -24 6 -32 3 -62 -1 -7 2 -31 6 -53 3 -22 8 -58
11 -80 2 -22 10 -71 18 -109 8 -38 13 -73 10 -77 -2 -4 1 -20 7 -36 7 -15 13
-44 14 -63 2 -19 6 -46 10 -60 3 -14 8 -35 10 -47 2 -12 10 -44 18 -70 8 -26
18 -68 22 -93 3 -24 10 -49 14 -55 5 -5 11 -23 14 -40 17 -87 19 -94 51 -169
9 -21 15 -41 12 -44 -3 -2 1 -17 9 -33 8 -15 15 -39 15 -52 0 -13 7 -32 15
-43 8 -10 15 -30 15 -43 0 -13 8 -40 18 -60 10 -20 31 -61 47 -92 15 -31 26
-62 23 -70 -5 -15 62 -164 116 -256 20 -34 36 -70 36 -81 0 -25 283 -520 316
-552 14 -14 46 -60 72 -102 77 -127 120 -186 145 -202 13 -9 33 -34 46 -56 12
-22 26 -40 31 -40 5 0 11 -8 15 -19 3 -10 26 -40 50 -66 25 -26 45 -51 45 -56
0 -5 6 -9 13 -9 8 0 22 -16 33 -35 10 -19 24 -35 30 -35 6 0 19 -12 29 -26 20
-31 46 -63 63 -78 7 -6 36 -35 65 -65 29 -29 60 -61 70 -70 9 -9 37 -35 61
-58 25 -24 50 -43 55 -43 6 0 11 -4 11 -9 0 -13 59 -71 71 -71 6 0 26 -17 44
-37 19 -21 35 -35 35 -31 0 4 17 -9 38 -28 20 -19 71 -60 112 -92 41 -31 79
-63 83 -69 4 -7 15 -13 23 -13 8 0 25 -11 38 -25 13 -14 27 -25 32 -25 5 0 22
-11 38 -25 16 -14 32 -25 35 -25 3 0 22 -14 41 -30 19 -16 41 -30 48 -30 7 0
23 -10 35 -23 12 -13 37 -29 55 -36 17 -8 32 -18 32 -24 0 -6 3 -7 7 -4 3 4
15 -1 25 -10 33 -30 91 -51 114 -41 11 5 35 38 52 73 18 34 39 68 47 75 8 7
15 20 15 30 0 9 9 25 20 35 11 10 23 27 26 39 4 11 22 43 40 71 19 27 34 56
34 63 0 7 9 23 20 35 11 12 18 27 16 34 -3 7 -2 13 3 13 9 0 91 125 91 139 0
5 7 14 15 21 8 7 15 20 15 29 0 10 8 26 18 37 10 10 30 45 46 77 16 31 33 57
37 57 4 0 10 13 14 29 3 16 15 37 26 47 10 9 19 21 19 27 0 5 9 22 21 38 11
16 17 29 13 29 -4 0 2 9 14 20 12 12 22 28 22 36 0 9 9 28 21 42 25 33 89 142
83 142 -2 0 9 19 26 42 16 22 30 47 30 55 0 8 9 23 20 35 10 11 27 37 36 57 9
20 20 38 23 41 7 6 29 43 50 85 8 17 17 32 20 35 4 3 12 16 19 30 7 14 21 39
32 55 11 17 26 46 35 65 9 19 19 37 23 40 10 7 92 152 94 165 0 6 11 23 24 38
13 16 24 37 24 47 0 10 6 20 14 23 12 5 59 88 57 102 -1 3 8 14 19 25 11 11
26 34 34 52 9 18 27 51 41 73 13 22 30 49 35 60 6 11 22 38 35 60 14 22 32 57
42 78 10 20 21 37 25 37 5 0 8 6 8 13 0 8 9 24 20 37 11 13 23 34 26 46 3 12
12 25 20 28 8 3 14 14 14 24 0 10 9 29 20 42 11 13 20 29 20 37 0 7 4 13 10
13 5 0 13 12 16 28 4 15 14 36 24 47 9 11 36 54 60 95 24 41 53 91 64 110 12
19 30 52 41 73 11 20 23 37 27 37 5 0 8 7 8 15 0 9 10 29 22 45 18 25 20 33
10 55 -6 14 -18 25 -25 25 -8 0 -22 9 -32 20 -10 11 -23 19 -30 18 -6 -2 -23
9 -38 25 -16 15 -32 27 -37 27 -9 0 -96 86 -218 215 -49 52 -198 310 -205 355
-3 19 -13 55 -22 80 -23 61 -45 146 -51 200 -6 60 -11 88 -18 99 -4 5 -2 12 3
15 10 7 2 96 -11 112 -5 8 -64 12 -176 12 -92 1 -357 2 -589 2 -232 1 -426 -1
-432 -5 -6 -3 -11 -3 -11 2 0 10 -294 8 -309 -2 -6 -3 -11 -3 -11 2 0 13
-2230 13 -2257 0z"/>
<path d="M8898 7270 c-37 -3 -72 -9 -77 -15 -5 -5 -13 -52 -16 -104 -3 -52 -8
-98 -11 -102 -2 -4 -7 -29 -10 -55 -7 -57 -65 -239 -101 -314 -14 -30 -26 -61
-26 -67 0 -7 -4 -13 -9 -13 -4 0 -17 -20 -29 -45 -12 -25 -25 -45 -30 -45 -5
0 -9 -5 -9 -11 0 -13 -35 -59 -107 -138 -29 -32 -53 -62 -53 -67 0 -5 -11 -16
-24 -24 -54 -34 -105 -76 -106 -85 0 -5 -36 -30 -81 -55 -65 -37 -79 -49 -76
-66 7 -40 1882 -3294 1898 -3294 24 0 220 118 262 159 21 20 71 56 111 81 151
93 170 106 207 143 21 20 42 37 48 37 14 0 109 79 147 121 11 13 44 40 72 59
28 19 51 39 52 43 0 9 55 61 111 107 17 14 47 42 68 63 20 21 64 66 99 101 34
35 62 67 62 71 0 4 19 26 43 49 23 23 58 61 77 85 19 24 54 64 78 90 23 25 42
49 42 53 0 4 14 21 30 38 17 17 30 33 30 36 0 8 50 75 84 111 16 18 27 35 24
38 -3 3 10 22 28 42 19 20 34 44 34 54 0 11 4 19 9 19 9 0 81 105 81 118 0 5
9 17 20 27 11 10 20 26 20 35 0 10 7 23 15 30 14 12 83 129 120 205 11 22 22
42 25 45 9 9 138 273 178 365 70 161 75 175 69 181 -3 3 2 15 13 26 10 11 21
39 25 64 3 24 10 44 14 44 5 0 23 51 41 113 18 61 36 119 41 127 10 20 50 160
53 185 2 11 6 27 9 35 6 13 18 66 31 135 2 11 11 51 20 89 9 37 16 75 14 85
-1 9 1 22 5 28 10 16 16 44 23 112 3 30 8 59 11 64 3 5 7 26 8 46 2 20 6 59 9
86 4 28 9 70 10 95 2 25 4 45 5 45 2 0 5 48 16 245 3 57 8 106 10 108 2 2 0
16 -5 31 -4 15 -4 34 0 42 11 21 -8 76 -27 81 -23 5 -201 1 -218 -6 -7 -2 -16
-2 -19 2 -4 3 -568 7 -1254 9 -1783 4 -1782 4 -1793 -2 -5 -4 -13 -4 -18 0
-13 7 -317 11 -403 5z"/>
</svg>
