<?xml version="1.0" standalone="no"?>
<!DOCTYPE svg PUBLIC "-//W3C//DTD SVG 20010904//EN"
 "http://www.w3.org/TR/2001/REC-SVG-20010904/DTD/svg10.dtd">
<svg version="1.0" xmlns="http://www.w3.org/2000/svg"
 
 preserveAspectRatio="xMidYMid meet">

<g transform="translate(0.000000,1080.000000) scale(0.100000,-0.100000)"
fill="#000000" stroke="none">
<path d="M4048 7001 c-31 -10 -72 -28 -91 -40 -52 -32 -116 -106 -145 -169
l-27 -57 0 -1335 0 -1335 33 -67 c40 -82 119 -157 200 -190 l57 -23 1325 0
1325 0 57 23 c81 33 160 108 200 190 l33 67 0 1335 0 1335 -33 67 c-40 82
-119 157 -200 190 l-57 23 -1310 2 c-1242 2 -1313 1 -1367 -16z m2659 -196
c50 -21 72 -42 94 -90 18 -38 19 -99 19 -1315 0 -1216 -1 -1277 -19 -1315 -22
-48 -44 -69 -94 -90 -32 -13 -186 -15 -1309 -15 -1214 0 -1275 1 -1313 19 -48
22 -69 44 -90 94 -13 32 -15 186 -15 1307 0 1121 2 1275 15 1307 21 50 42 72
90 94 38 18 99 19 1313 19 1123 0 1277 -2 1309 -15z"/>
<path d="M5177 6604 c-44 -8 -113 -26 -155 -40 -90 -29 -282 -120 -282 -133 0
-15 450 -761 459 -761 5 0 35 12 67 27 77 35 151 35 257 -1 42 -14 79 -26 81
-26 2 0 50 84 107 188 56 103 149 271 206 374 57 102 103 191 103 197 0 14
-152 90 -248 125 -177 63 -412 83 -595 50z"/>
<path d="M5328 5496 c-58 -21 -86 -43 -115 -89 -23 -35 -27 -53 -27 -107 0
-128 85 -212 214 -212 171 0 270 172 184 319 -47 80 -168 122 -256 89z"/>
<path d="M4080 5166 c0 -62 7 -152 15 -199 40 -227 174 -467 347 -619 75 -66
226 -170 240 -166 5 2 117 170 249 373 l239 370 -33 25 c-105 80 -140 142
-154 273 l-6 57 -448 0 -449 0 0 -114z"/>
<path d="M5817 5221 c-7 -68 -39 -158 -68 -195 -11 -14 -42 -40 -67 -58 -26
-17 -49 -33 -51 -34 -2 -2 42 -74 97 -161 308 -480 380 -588 395 -587 46 4
249 166 339 272 162 190 246 411 255 675 l6 147 -450 0 -450 0 -6 -59z"/>
</g>
</svg>
