<?xml version="1.0" encoding="UTF-8"?>
<svg width="24px" height="24px" viewBox="0 0 24 24" version="1.1" xmlns="http://www.w3.org/2000/svg" xmlns:xlink="http://www.w3.org/1999/xlink">
    <title>Path</title>
    <defs>
        <!-- Define the black circle for the nucleus -->
        <circle id="Nucleus" cx="12" cy="12" r="7" fill="#000000"></circle>
    </defs>
    <g id="Extensions" stroke="none" stroke-width="1" fill="none" fill-rule="evenodd">
        <g id="Tools-Expand-Copy-5">
            <polygon id="Path" points="0 0 24 0 24 24 0 24"></polygon>
            <g id="Group-8" transform="translate(3.000000, 2.000000)">
                <g id="Group">
                    <mask id="mask-2" fill="white">
                        <use xlink:href="#Nucleus"></use>
                    </mask>
                    <g id="Mask"></g>
                    <g mask="url(#mask-2)" stroke="#000000" stroke-linejoin="round" stroke-width="0.75">
                        <!-- Add orbit lines (concentric circles) here -->
                        <circle cx="12" cy="12" r="11" fill="none" stroke="#000000" stroke-width="2"></circle>
                        <circle cx="12" cy="12" r="15" fill="none" stroke="#000000" stroke-width="2"></circle>
                    </g>
                </g>
                <path d="M0,5.63369187 L0,14.890695 C-4.01383168e-16,15.2394163 0.180615901,15.5632581 0.477309721,15.7465047 L8.45390968,20.6730816 C8.77827115,20.8734166 9.18801402,20.8731604 9.51212472,20.67242 L17.4682691,15.7447219 C17.7626449,15.5623981 17.9425487,15.2414818 17.9444932,14.8952227 L17.9966585,5.60637252 C17.9987194,5.23939904 17.8007649,4.90042593 17.4801394,4.72189577 L9.48934735,0.272477503 C9.18510812,0.103071565 8.81489188,0.103071565 8.51065265,0.272477503 L0.543721053,4.70860987 C0.20808108,4.89550031 -3.88253023e-16,5.24952754 0,5.63369187 Z" id="Path-10" stroke="#000000" stroke-width="0.75"></path>
            </g>
        </g>
    </g>
</svg>
