<?xml version="1.0" standalone="no"?>
<!DOCTYPE svg PUBLIC "-//W3C//DTD SVG 20010904//EN"
 "http://www.w3.org/TR/2001/REC-SVG-20010904/DTD/svg10.dtd">
<svg version="1.0" xmlns="http://www.w3.org/2000/svg"
 width="1080.000000pt" height="1080.000000pt" viewBox="0 0 1080.000000 1080.000000"
 preserveAspectRatio="xMidYMid meet">

<g transform="translate(0.000000,1080.000000) scale(0.100000,-0.100000)"
fill="#000000" stroke="none">
<path d="M600 10429 c-111 -39 -204 -135 -235 -243 -13 -45 -15 -611 -13
-4806 l3 -4755 33 -67 c37 -75 103 -142 179 -179 l48 -24 4790 0 4790 0 52 29
c70 39 138 108 171 176 l27 55 0 4785 0 4785 -29 58 c-36 71 -108 140 -184
175 l-57 27 -4760 2 c-4678 1 -4761 1 -4815 -18z m9358 -5031 l-3 -4553 -4552
-3 -4553 -2 0 4555 0 4555 4555 0 4555 0 -2 -4552z"/>
<path d="M4970 9195 c-439 -50 -872 -177 -1275 -375 -118 -58 -351 -183 -364
-195 -3 -4 1413 -2370 1428 -2388 4 -4 65 20 135 53 70 34 169 75 219 93 87
29 100 31 237 31 117 0 163 -5 239 -23 116 -29 259 -77 370 -125 46 -20 85
-35 86 -34 4 4 116 208 345 623 106 193 236 429 290 525 54 96 184 333 290
525 106 193 237 430 291 527 55 98 99 181 99 186 0 12 -248 148 -411 226 -352
167 -746 285 -1149 342 -161 22 -660 28 -830 9z"/>
<path d="M5225 5724 c-182 -45 -354 -182 -433 -344 -94 -193 -94 -394 0 -590
79 -165 255 -302 443 -346 107 -25 306 -15 403 19 141 50 253 136 331 252 107
160 141 341 99 525 -17 77 -93 221 -148 282 -67 75 -173 144 -279 182 -77 27
-100 31 -221 33 -94 1 -153 -2 -195 -13z"/>
<path d="M1276 4994 c-12 -88 -6 -507 9 -649 71 -670 324 -1288 741 -1810 190
-238 510 -530 797 -726 138 -95 326 -209 343 -209 7 0 55 66 107 147 88 138
594 922 764 1183 349 538 654 1012 651 1015 -2 1 -51 34 -109 73 -59 39 -134
94 -168 122 -171 143 -273 376 -311 715 -6 55 -13 119 -16 143 l-5 42 -1398 0
-1398 0 -7 -46z"/>
<path d="M6726 5018 c-3 -13 -8 -59 -11 -103 -15 -189 -62 -378 -129 -520 -78
-164 -149 -238 -364 -380 -63 -42 -101 -74 -98 -81 4 -11 594 -927 843 -1309
47 -71 212 -328 369 -570 156 -242 290 -444 297 -449 18 -12 237 120 423 254
591 425 1000 945 1251 1590 180 461 256 960 226 1478 l-6 112 -1398 0 -1399 0
-4 -22z"/>
</g>
</svg>
