<?xml version="1.0" standalone="no"?>
<!DOCTYPE svg PUBLIC "-//W3C//DTD SVG 20010904//EN"
 "http://www.w3.org/TR/2001/REC-SVG-20010904/DTD/svg10.dtd">
<svg version="1.0" xmlns="http://www.w3.org/2000/svg"
 width="1080.000000pt" height="1080.000000pt" viewBox="0 0 1080.000000 1080.000000"
 preserveAspectRatio="xMidYMid meet">

<g transform="translate(0.000000,1080.000000) scale(0.100000,-0.100000)"
fill="#000000" stroke="none">
<path d="M1205 10443 c-16 -2 -66 -13 -110 -25 -345 -87 -612 -353 -717 -714
l-23 -79 0 -4230 0 -4230 28 -90 c109 -353 378 -614 721 -700 l99 -25 4193 0
c3612 0 4202 2 4261 14 296 63 555 261 688 526 46 91 71 162 90 253 13 59 15
636 15 4261 l0 4193 -25 99 c-29 119 -113 291 -185 381 -141 177 -357 307
-585 354 -87 18 -227 19 -4255 17 -2291 0 -4178 -3 -4195 -5z m8380 -508 c165
-44 307 -181 351 -342 18 -66 19 -195 19 -4198 0 -3972 -1 -4132 -18 -4190
-47 -153 -166 -278 -323 -337 l-59 -23 -4118 -3 c-4505 -2 -4192 -6 -4316 54
-68 34 -180 143 -214 209 -13 28 -32 74 -41 104 -15 50 -16 416 -16 4192 0
4098 0 4137 20 4201 49 161 196 299 356 337 23 5 1700 9 4169 10 3681 1 4137
-1 4190 -14z"/>
<path d="M4970 9195 c-439 -50 -872 -177 -1275 -375 -118 -58 -351 -183 -364
-195 -3 -4 1413 -2370 1428 -2388 4 -4 65 20 135 53 70 34 169 75 219 93 87
29 100 31 237 31 117 0 163 -5 239 -23 116 -29 259 -77 370 -125 46 -20 85
-35 86 -34 4 4 116 208 345 623 106 193 236 429 290 525 54 96 184 333 290
525 106 193 237 430 291 527 55 98 99 181 99 186 0 12 -248 148 -411 226 -352
167 -746 285 -1149 342 -161 22 -660 28 -830 9z"/>
<path d="M5225 5724 c-182 -45 -354 -182 -433 -344 -94 -193 -94 -394 0 -590
79 -165 255 -302 443 -346 107 -25 306 -15 403 19 141 50 253 136 331 252 107
160 141 341 99 525 -17 77 -93 221 -148 282 -67 75 -173 144 -279 182 -77 27
-100 31 -221 33 -94 1 -153 -2 -195 -13z"/>
<path d="M1276 4994 c-12 -88 -6 -507 9 -649 71 -670 324 -1288 741 -1810 190
-238 510 -530 797 -726 138 -95 326 -209 343 -209 7 0 55 66 107 147 88 138
594 922 764 1183 349 538 654 1012 651 1015 -2 1 -51 34 -109 73 -59 39 -134
94 -168 122 -171 143 -273 376 -311 715 -6 55 -13 119 -16 143 l-5 42 -1398 0
-1398 0 -7 -46z"/>
<path d="M6726 5018 c-3 -13 -8 -59 -11 -103 -15 -189 -62 -378 -129 -520 -78
-164 -149 -238 -364 -380 -63 -42 -101 -74 -98 -81 4 -11 594 -927 843 -1309
47 -71 212 -328 369 -570 156 -242 290 -444 297 -449 18 -12 237 120 423 254
591 425 1000 945 1251 1590 180 461 256 960 226 1478 l-6 112 -1398 0 -1399 0
-4 -22z"/>
</g>
</svg>
